<svg id="Layer_1" data-name="Layer 1" xmlns="http://www.w3.org/2000/svg" viewBox="0 0 53.4 66.44"><polygon points="23.48 29.95 23.48 20.95 29.48 20.95 29.48 17.95 23.48 17.95 23.48 5.95 20.48 5.95 20.48 29.95 23.48 29.95"/><polygon points="41.48 29.95 41.48 23.95 47.48 23.95 47.48 20.95 41.48 20.95 38.48 20.95 38.48 29.95 41.48 29.95"/><rect x="29.48" y="20.94" width="3" height="6"/><rect x="2.48" y="32.94" width="3" height="12"/><rect x="14.48" y="2.94" width="6" height="3"/><rect x="32.48" y="17.94" width="6" height="3"/><polygon points="11.48 42.95 14.48 42.95 14.48 26.95 14.48 5.95 11.48 5.95 11.48 26.95 8.48 26.95 8.48 29.95 11.48 29.95 11.48 42.95"/><rect x="5.48" y="29.94" width="3" height="3"/><polygon points="41.48 59.95 17.48 59.95 17.48 53.95 14.48 53.95 14.48 59.95 14.48 62.95 42.48 62.95 44.48 62.95 44.48 53.95 41.48 53.95 41.48 59.95"/><rect x="47.48" y="23.94" width="3" height="21"/><rect x="44.48" y="44.94" width="3" height="9"/><rect x="5.48" y="44.94" width="3" height="3"/><polygon points="11.48 47.95 8.48 47.95 8.48 50.95 11.48 50.95 11.48 53.95 14.48 53.95 14.48 47.95 11.48 47.95"/></svg>